<svg xmlns="http://www.w3.org/2000/svg" xmlns:xlink="http://www.w3.org/1999/xlink" viewBox="0 0 1024 1024"><defs><style>.d74fd63f-7ece-4087-b2b1-e35a2c4d1333{fill:none;}.\38 d5f8605-6e98-4106-be65-5dd03fe8a850{clip-path:url(#d39e9412-fb8f-4241-b0f5-5b54f7d112af);}.eec0fe4b-cd6b-434c-9382-c6fcc29a3f08{clip-path:url(#3fbd6edc-5ed6-4719-aeae-34f1b4b10019);}.\38 0187e46-a2f1-4bb0-8872-1f4d8d87b8fa{clip-path:url(#fe9ec798-8605-4362-b0cf-99105104fb60);}.\33 2060a3d-680e-4d3c-97eb-ccda73fb64bb{clip-path:url(#9bf82be0-df91-449a-94c6-e14091a23322);}.\33 386889d-9b0b-4052-9c89-704a685c2be1{clip-path:url(#6ea2bb4e-6ef3-4564-b5ef-215958622933);}.cd039690-4028-4883-9772-7004995ab9b4{clip-path:url(#dd764113-1d89-4f3a-b398-4fa7328305cd);}.\32 802a34e-67c2-4b17-b165-205cefe5700a{fill:#6dc07f;}.d5c9744d-3306-4089-9a47-641df571ff24{filter:url(#a5b2ae19-85cc-4286-b20f-0c9fc7bf1176);}.\31 10eb9e5-24e3-457e-be8d-13e819986018{fill:#c16cac;}.fb25ea85-e7e0-4d1d-b492-da0bf05ef7a8{clip-path:url(#92bc2bf9-ae5f-4ba1-81ab-0fe76202fce0);}</style><clipPath id="d39e9412-fb8f-4241-b0f5-5b54f7d112af"><circle id="eb40bf9e-a0e3-41d5-88d2-5491adaaad6e" data-name="mask" class="d74fd63f-7ece-4087-b2b1-e35a2c4d1333" cx="-2620" cy="512" r="512"/></clipPath><clipPath id="3fbd6edc-5ed6-4719-aeae-34f1b4b10019"><circle id="0dfc57e7-0d65-43ea-bf4e-f69818a5e38d" data-name="mask" class="d74fd63f-7ece-4087-b2b1-e35a2c4d1333" cx="-532.37" cy="512" r="512"/></clipPath><clipPath id="fe9ec798-8605-4362-b0cf-99105104fb60"><circle id="e5e0930d-d25d-40ae-8f80-394fe9c1e820" data-name="mask" class="d74fd63f-7ece-4087-b2b1-e35a2c4d1333" cx="-1577.37" cy="512" r="512"/></clipPath><clipPath id="9bf82be0-df91-449a-94c6-e14091a23322"><circle id="f2337240-8a15-41f1-9ade-fe1b92d0ac9b" data-name="mask" class="d74fd63f-7ece-4087-b2b1-e35a2c4d1333" cx="1554.46" cy="511.5" r="512"/></clipPath><clipPath id="6ea2bb4e-6ef3-4564-b5ef-215958622933"><circle id="f4b60dcc-2c0c-4620-86c9-4b5e29b83079" data-name="mask" class="d74fd63f-7ece-4087-b2b1-e35a2c4d1333" cx="2605.04" cy="511.75" r="512"/></clipPath><clipPath id="dd764113-1d89-4f3a-b398-4fa7328305cd"><circle id="54c47d5c-5fb9-47df-b6a2-724ed3c3c94f" data-name="mask" class="d74fd63f-7ece-4087-b2b1-e35a2c4d1333" cx="510.73" cy="511.75" r="512"/></clipPath><filter id="a5b2ae19-85cc-4286-b20f-0c9fc7bf1176" x="-75" y="-75" width="200" height="200" name="blur_21"><feGaussianBlur stdDeviation="30"/></filter><clipPath id="92bc2bf9-ae5f-4ba1-81ab-0fe76202fce0"><circle id="a1d8bef2-7bda-441d-b03c-de4cde614865" data-name="mask" class="d74fd63f-7ece-4087-b2b1-e35a2c4d1333" cx="5733.89" cy="511.5" r="512"/></clipPath></defs><title>silence</title><g id="a5f6224a-bc12-4a0d-9bf3-95ec64c386ab" data-name="silence"><g class="cd039690-4028-4883-9772-7004995ab9b4"><g id="5b262391-9189-41ff-a2df-c2f0ab334163" data-name="Layer 3 copy 5"><rect class="2802a34e-67c2-4b17-b165-205cefe5700a" x="-3.16" y="0.25" width="1024" height="1024"/><g id="5c86de8f-f03c-4b1f-8598-f1917ca4d332" data-name="Layer 18"><g id="17ba9998-c993-4072-86ac-0295ea83e7d5" data-name="Layer 19 copy"><g class="d5c9744d-3306-4089-9a47-641df571ff24"><path class="110eb9e5-24e3-457e-be8d-13e819986018" d="M1059.16,239.91,887,297.27l60-20.19-67.37-42.74L740.31,280c-40.63,11.58-62.65,27.61-99.46,21-17.53-4.55-25.33-11.12-36-28.72-3.76-6.5-15.57-12.64-24.87-9.59l-98.16,32.19-4.06,37.45a167.48,167.48,0,0,1-91.75,131.81l-214.4,71.43A104.87,104.87,0,0,0,115,581.56L89.47,624.71a46.65,46.65,0,0,0,13,61.71l16.66,11.89a212.27,212.27,0,0,0,191.16,28.43L864.51,542.33a340.55,340.55,0,0,0,185.38-149.42l56.21-94.78C1124.94,266.35,1094.21,228.23,1059.16,239.91Z"/></g></g></g></g></g></g></svg>