<svg xmlns="http://www.w3.org/2000/svg" xmlns:xlink="http://www.w3.org/1999/xlink" viewBox="0 0 1024 1024"><defs><style>.\35 6f76fd5-87c4-432f-b156-a77ce21f8826,.a0bc95ef-0eab-4902-9b48-1cb3040126c5{fill:none;}.a270acb7-a10c-438f-afe5-591351c98ac5{clip-path:url(#d639b7d1-ce55-44e0-a009-e20fdce2a753);}.\37 da64c62-544e-41b4-b8e1-c035b00ea54a{clip-path:url(#1702901d-df21-4bc3-97c6-afd47916af85);}.bd0be6ec-7099-4b49-a37d-a80c0abd2923{clip-path:url(#f34ad4fb-1c8a-4a7c-a024-bc9ad6d15b57);}.\34 c58eff6-0e43-48ba-a88e-c9f5d514efdb{clip-path:url(#4c6c81a8-2950-40cb-a938-687b1ba1e89a);}.a66f15b5-a079-469c-bced-bfa93a26678d{clip-path:url(#a7b90fc1-342e-4fa0-807e-2f460b159c7b);}.\36 87dac19-08f2-42ae-9ed1-99f25f16f9f8{clip-path:url(#bc2d2b3e-66d0-4016-9a8c-04257583d7a1);}.\39 d9feb11-b3f8-46b2-898f-d60bf31e78ec{clip-path:url(#72e98d97-514d-414f-8754-e81c61d0067b);}.\36 e464e01-51bd-4034-a1d6-8465d70b8645{fill:#1555a0;}.eca82ade-cd86-4438-aec2-fd46449827c1{fill:#2d292a;}.\31 8d3fc1d-562b-44f8-b83c-3b9f261f5dbc{filter:url(#0f4992fc-c70a-49a4-83da-b930749932b7);}.\35 6f76fd5-87c4-432f-b156-a77ce21f8826{stroke:#477ec1;stroke-miterlimit:10;stroke-width:35px;}</style><clipPath id="d639b7d1-ce55-44e0-a009-e20fdce2a753"><circle id="0eb72e76-82fc-43cb-9baa-06f29c71ffa0" data-name="mask" class="a0bc95ef-0eab-4902-9b48-1cb3040126c5" cx="-7840" cy="512" r="512"/></clipPath><clipPath id="1702901d-df21-4bc3-97c6-afd47916af85"><circle id="ec30f194-8163-4e37-9d06-45ab87b7a0ba" data-name="mask" class="a0bc95ef-0eab-4902-9b48-1cb3040126c5" cx="-5752.37" cy="512" r="512"/></clipPath><clipPath id="f34ad4fb-1c8a-4a7c-a024-bc9ad6d15b57"><circle id="b77b31bd-8628-4df9-b624-6af99556851d" data-name="mask" class="a0bc95ef-0eab-4902-9b48-1cb3040126c5" cx="-6797.37" cy="512" r="512"/></clipPath><clipPath id="4c6c81a8-2950-40cb-a938-687b1ba1e89a"><circle id="580dc01a-2701-4984-a83e-8db1c0e8e263" data-name="mask" class="a0bc95ef-0eab-4902-9b48-1cb3040126c5" cx="-3665.54" cy="511.5" r="512"/></clipPath><clipPath id="a7b90fc1-342e-4fa0-807e-2f460b159c7b"><circle id="930f0289-f279-4574-9eab-f85b95ed147e" data-name="mask" class="a0bc95ef-0eab-4902-9b48-1cb3040126c5" cx="-2614.96" cy="511.75" r="512"/></clipPath><clipPath id="bc2d2b3e-66d0-4016-9a8c-04257583d7a1"><circle id="9040ffc9-9ba0-4004-87a8-95fe3ccb8090" data-name="mask" class="a0bc95ef-0eab-4902-9b48-1cb3040126c5" cx="-4709.27" cy="511.75" r="512"/></clipPath><clipPath id="72e98d97-514d-414f-8754-e81c61d0067b"><circle id="ff8366bf-613d-4076-b194-462d5f442a22" data-name="mask" class="a0bc95ef-0eab-4902-9b48-1cb3040126c5" cx="513.89" cy="511.5" r="512"/></clipPath><filter id="0f4992fc-c70a-49a4-83da-b930749932b7" x="-75" y="-75" width="200" height="200" name="blur_20"><feGaussianBlur stdDeviation="10"/></filter></defs><title>sonar</title><g id="4483edcb-271a-42ac-be08-83a81c83835c" data-name="sonar"><g class="9d9feb11-b3f8-46b2-898f-d60bf31e78ec"><g id="e73058a3-36da-4998-aebe-da428d9a3c60" data-name="Layer 3 copy 6"><rect class="6e464e01-51bd-4034-a1d6-8465d70b8645" width="1024" height="1024"/><g id="40d8871f-42f4-44ff-a73e-c1977d9a0b96" data-name="Layer 18 copy"><g id="d0a3a3b2-011b-4a09-9425-e2a398d5db00" data-name="Layer 19 copy 2"><path d="M1434.84,98.38,1262.7,155.73l60-20.18-67.37-42.74L1116,138.49c-40.64,11.59-62.65,27.61-99.47,21C999,155,991.2,148.39,980.59,130.78c-3.77-6.49-15.58-12.64-24.88-9.59l-98.16,32.2-4.06,37.45a167.45,167.45,0,0,1-91.75,131.8l-214.4,71.44A104.85,104.85,0,0,0,490.68,440l-25.52,43.16a46.64,46.64,0,0,0,13,61.7l16.66,11.9A212.27,212.27,0,0,0,686,585.2l554.18-184.41a340.49,340.49,0,0,0,185.38-149.41l56.21-94.79C1500.63,124.82,1469.89,86.7,1434.84,98.38Z"/></g><path class="eca82ade-cd86-4438-aec2-fd46449827c1" d="M755.37,324.79l21.22-9.89,69.69-19.78c32.57-9.25,66.91-18.1,95.12-36.83l16.85-11.67,6.56,12.28-17.61,8.29c-31.24,15-65.71,23.75-99.19,32.74Z"/><g id="0b7c1efa-b004-4d71-a805-a7b8f1a05333" data-name="Layer 28"><g class="18d3fc1d-562b-44f8-b83c-3b9f261f5dbc"><path class="56f76fd5-87c4-432f-b156-a77ce21f8826" d="M368.31,716.6a250.16,250.16,0,0,1-76.14-323.76"/></g><g class="18d3fc1d-562b-44f8-b83c-3b9f261f5dbc"><path class="56f76fd5-87c4-432f-b156-a77ce21f8826" d="M316.31,802.23C223.21,739.33,162,632.81,162,512a348.41,348.41,0,0,1,45-171.81"/></g><g class="18d3fc1d-562b-44f8-b83c-3b9f261f5dbc"><path class="56f76fd5-87c4-432f-b156-a77ce21f8826" d="M263.56,887.26C142.09,806.68,62,668.69,62,512a448,448,0,0,1,59.71-224.15"/></g><g class="18d3fc1d-562b-44f8-b83c-3b9f261f5dbc"><path class="56f76fd5-87c4-432f-b156-a77ce21f8826" d="M420.79,631.1a150.13,150.13,0,0,1-43-186.1"/></g></g></g></g></g></g></svg>