<svg xmlns="http://www.w3.org/2000/svg" xmlns:xlink="http://www.w3.org/1999/xlink" viewBox="0 0 1024 1024"><defs><style>.\35 ec646cb-8f50-44eb-ad8a-b4035387eeab{fill:none;}.d3799fc9-6791-412f-b8cd-9a85219469bd{clip-path:url(#35c4d5ee-55dd-487e-899e-7fa6abfd9e8e);}.\33 7d14dc5-0dd9-492c-9b6d-e6ff9e4fb82f{clip-path:url(#1e9206fd-2870-400d-b803-67e3bc0e6eda);}.\38 bc4d63b-6a27-4fa6-99de-b01031eb9ad5{clip-path:url(#915028eb-2e25-4289-bf4f-2e77d77d9127);}.\30 0a40a57-2084-485d-9d84-f93a2b68ac6f{clip-path:url(#b97f7753-aef3-417b-a635-b9eda386696b);}.\30 e7f001a-1848-41c8-bbc7-6e715b3c9233{clip-path:url(#245f8e0a-8d48-4a9c-b0d1-d539281976db);}.\36 62b57a7-10dc-4aac-a3de-369f319bf0a8{fill:#a21d21;}.\30 a7b280d-44ea-40ea-9fab-ba357229667f{fill:#262626;}.\30 e1bf778-2e46-4ad7-b7f1-6b868b86a94e{fill:#231f20;}.fe964013-56ee-4d95-a2fe-20c5299d48f3{fill:#2d292a;}</style><clipPath id="35c4d5ee-55dd-487e-899e-7fa6abfd9e8e"><circle id="6fbad637-2481-4806-9864-de390699f6f2" data-name="mask" class="5ec646cb-8f50-44eb-ad8a-b4035387eeab" cx="-4633" cy="512" r="512"/></clipPath><clipPath id="1e9206fd-2870-400d-b803-67e3bc0e6eda"><circle id="24990b74-bddc-448c-8b3c-9059ff039401" data-name="mask" class="5ec646cb-8f50-44eb-ad8a-b4035387eeab" cx="-2579.69" cy="512" r="512"/></clipPath><clipPath id="915028eb-2e25-4289-bf4f-2e77d77d9127"><circle id="ec0a1a57-1163-4967-93ed-6f9b694cf43d" data-name="mask" class="5ec646cb-8f50-44eb-ad8a-b4035387eeab" cx="-3608.37" cy="512" r="512"/></clipPath><clipPath id="b97f7753-aef3-417b-a635-b9eda386696b"><circle id="04626937-a870-430d-9977-ef5b918a4548" data-name="mask" class="5ec646cb-8f50-44eb-ad8a-b4035387eeab" cx="-518.54" cy="511.5" r="512"/></clipPath><clipPath id="245f8e0a-8d48-4a9c-b0d1-d539281976db"><circle id="23da40dd-3e44-4188-80a6-d456d4920c12" data-name="mask" class="5ec646cb-8f50-44eb-ad8a-b4035387eeab" cx="517.04" cy="511.75" r="512"/></clipPath></defs><title>torpedo</title><g id="88f79fd5-75ee-408e-ad23-65cb9a8f6e1b" data-name="torpedo"><g class="0e7f001a-1848-41c8-bbc7-6e715b3c9233"><g id="5e7735b3-b8cf-4cca-ac04-1321fbd444bd" data-name="Layer 3 copy 3"><rect class="662b57a7-10dc-4aac-a3de-369f319bf0a8" x="3.15" y="0.25" width="1024" height="1024"/><polygon class="0a7b280d-44ea-40ea-9fab-ba357229667f" points="568.5 532.38 536.05 520.57 550.75 541.19 568.5 532.38"/><polygon class="0a7b280d-44ea-40ea-9fab-ba357229667f" points="568.5 500.14 568.5 566 544.89 541.81 568.5 500.14"/><path class="0e1bf778-2e46-4ad7-b7f1-6b868b86a94e" d="M229.27,667.16l296-138a40,40,0,0,1,30.59-1.34l12.62,4.59L563.9,545a40,40,0,0,1-20.68,22.57l-296,138a25,25,0,0,1-19.12.83h0a19.64,19.64,0,0,1-11.74-25.18h0A25,25,0,0,1,229.27,667.16Z"/><path class="0e1bf778-2e46-4ad7-b7f1-6b868b86a94e" d="M1074.35,346.53l-258.24,119a133.25,133.25,0,0,1-121.19-4.81l-11.19-6.3a29.27,29.27,0,0,1-12.31-37.62l13-28.64a65.75,65.75,0,0,1,32.24-32.5l302.71-140.32"/><path class="0e1bf778-2e46-4ad7-b7f1-6b868b86a94e" d="M830.05,303l2.3-1.06a105.1,105.1,0,0,0,60.89-95.35V183l59.82-25.06,28.76,74.76Z"/><path class="fe964013-56ee-4d95-a2fe-20c5299d48f3" d="M824.13,305.8l21.22-9.89L915,276.13a327.39,327.39,0,0,0,91.72-42.23l5.21-3.46,6.55,12.29-4.46,2.14a559.93,559.93,0,0,1-97.29,36.07Z"/><path class="0a7b280d-44ea-40ea-9fab-ba357229667f" d="M568.5,532.37l-1,1.38a14.3,14.3,0,0,1-6.64,5.18L555,541.19l35.91-2.2Z"/></g></g></g></svg>