<svg xmlns="http://www.w3.org/2000/svg" xmlns:xlink="http://www.w3.org/1999/xlink" viewBox="0 0 1024 1024"><defs><style>.\34 9412e00-a31c-48d8-be05-7300f816dd19,.a3ae489c-0d87-4ed1-9f94-e0bc2877b0b0,.bf5570fa-e068-4b1c-a690-69205266c47a{fill:none;}.\30 c275cc1-6b5e-4819-8cdb-07fba14e7c63{clip-path:url(#ea93b2b0-9182-42ce-8a00-d01a83b2cb7b);}.d41f9e92-4355-43ee-a2e6-2de34ac1aa32{clip-path:url(#75a44b40-22ba-4d0d-aad1-dccae57d19d5);}.b419f295-7cd3-4975-8781-ede2cc60b183{clip-path:url(#fff8122e-cf45-4990-9f27-bb5062ce361f);}.\32 4fe4434-bb1a-41dd-a9c7-aed693b69097{fill:#16549f;}.bf5570fa-e068-4b1c-a690-69205266c47a{stroke:#139ad2;stroke-width:15px;}.\34 9412e00-a31c-48d8-be05-7300f816dd19,.bf5570fa-e068-4b1c-a690-69205266c47a{stroke-miterlimit:10;}.\34 9412e00-a31c-48d8-be05-7300f816dd19{stroke:#ee2d24;stroke-width:30px;}.\33 b68bb35-595e-4aee-a945-47f5a562de1f{fill:#ee2d24;}</style><clipPath id="ea93b2b0-9182-42ce-8a00-d01a83b2cb7b"><circle id="5b147da2-43b9-4896-9220-6e070e181bb9" data-name="mask" class="a3ae489c-0d87-4ed1-9f94-e0bc2877b0b0" cx="-1576" cy="512" r="512"/></clipPath><clipPath id="75a44b40-22ba-4d0d-aad1-dccae57d19d5"><circle id="85ad6d42-a55d-4f44-b52a-11d1d39360f7" data-name="mask" class="a3ae489c-0d87-4ed1-9f94-e0bc2877b0b0" cx="-531.37" cy="512" r="512"/></clipPath><clipPath id="fff8122e-cf45-4990-9f27-bb5062ce361f"><circle id="f8bf9154-9d5b-4812-b509-475a2f60079e" data-name="mask" class="a3ae489c-0d87-4ed1-9f94-e0bc2877b0b0" cx="512.31" cy="511.5" r="512"/></clipPath></defs><title>recon@25px</title><g id="8c419918-0dda-4424-aab8-9d858c18c460" data-name="recon copy"><g class="b419f295-7cd3-4975-8781-ede2cc60b183"><g id="697a1eca-a6ae-4af8-9a8b-f1f287cf6d4a" data-name="Layer 3 copy 2"><rect id="a1d03cfd-8604-49e7-8997-4dc7196fad0d" data-name="background" class="24fe4434-bb1a-41dd-a9c7-aed693b69097" x="0.31" y="-0.5" width="1024" height="1024"/><g id="e09f41bb-4e99-4b1d-8509-2d496ddfe78b" data-name="Layer 6 copy"><line class="bf5570fa-e068-4b1c-a690-69205266c47a" x1="912.68" y1="-0.5" x2="912.68" y2="1023.5"/><line class="bf5570fa-e068-4b1c-a690-69205266c47a" x1="311.69" y1="-0.5" x2="311.69" y2="1023.5"/><line class="bf5570fa-e068-4b1c-a690-69205266c47a" x1="111.69" y1="-0.5" x2="111.69" y2="1023.5"/><line class="bf5570fa-e068-4b1c-a690-69205266c47a" x1="512.68" y1="-0.5" x2="512.68" y2="1023.5"/><line class="bf5570fa-e068-4b1c-a690-69205266c47a" x1="-0.31" y1="111" x2="1023.69" y2="111"/><line class="bf5570fa-e068-4b1c-a690-69205266c47a" x1="-0.31" y1="712" x2="1023.69" y2="712"/><line class="bf5570fa-e068-4b1c-a690-69205266c47a" x1="-0.31" y1="912" x2="1023.69" y2="912"/><line class="bf5570fa-e068-4b1c-a690-69205266c47a" x1="-0.31" y1="511" x2="1023.69" y2="511"/><line class="49412e00-a31c-48d8-be05-7300f816dd19" x1="712.68" y1="-0.5" x2="712.68" y2="1023.5"/><line class="49412e00-a31c-48d8-be05-7300f816dd19" x1="-0.31" y1="311" x2="1023.69" y2="311"/></g><circle class="3b68bb35-595e-4aee-a945-47f5a562de1f" cx="712.68" cy="311" r="100"/><path class="3b68bb35-595e-4aee-a945-47f5a562de1f" d="M712.68,176a135,135,0,1,1-135,135,135,135,0,0,1,135-135m0-40a174.56,174.56,0,1,0,68.13,13.77A174,174,0,0,0,712.68,136Z"/></g></g></g></svg>