<svg xmlns="http://www.w3.org/2000/svg" xmlns:xlink="http://www.w3.org/1999/xlink" viewBox="0 0 1024 1024"><defs><style>.\35 6e5e5c0-5559-4cc1-8460-18507a4a62dc{fill:none;}.c9570233-545d-42d7-b6fe-2187191ab208{clip-path:url(#1dc17000-40b1-44c4-aa2a-479e1808b814);}.\34 c4fd91e-3a3b-4dbd-bfe0-dea42bcea305{clip-path:url(#9d9728bd-2d5c-46b7-a52b-49a323be2989);}.f60eab0c-cc78-4673-a64d-01045309c1e0{clip-path:url(#a8e4854d-d887-4e05-9207-e5bb4a66ac48);}.\33 565899b-2f7a-4943-a5af-4aaf3529208a{fill:#a21d21;}.aa741024-b7be-4340-a151-aa2a3df0bf5a{fill:#fff;}.\36 1c9a396-5452-4803-87fb-d9ddf3811ec6{fill:#e8e8e8;}</style><clipPath id="1dc17000-40b1-44c4-aa2a-479e1808b814"><circle id="bf3020cd-97bc-4b97-ba8a-1c53489804b0" data-name="mask" class="56e5e5c0-5559-4cc1-8460-18507a4a62dc" cx="-1576" cy="512" r="512"/></clipPath><clipPath id="9d9728bd-2d5c-46b7-a52b-49a323be2989"><circle id="17520079-3714-4a4f-a076-6ed6d4735e2c" data-name="mask" class="56e5e5c0-5559-4cc1-8460-18507a4a62dc" cx="-531.37" cy="512" r="512"/></clipPath><clipPath id="a8e4854d-d887-4e05-9207-e5bb4a66ac48"><circle id="62907ba6-254f-46e5-aec5-916cc2a5aea0" data-name="mask" class="56e5e5c0-5559-4cc1-8460-18507a4a62dc" cx="513.89" cy="511.5" r="512"/></clipPath></defs><title>weapons</title><g id="b91c3652-4331-42d5-912c-5c74f572ae0d" data-name="weapons"><g class="f60eab0c-cc78-4673-a64d-01045309c1e0"><g id="30a554d5-8fa0-4054-ba11-f927684780e7" data-name="Layer 3 copy 2"><rect class="3565899b-2f7a-4943-a5af-4aaf3529208a" width="1024" height="1024"/><g id="fd92cc75-9731-45c5-986f-1162b826366f" data-name="Cog"><path class="aa741024-b7be-4340-a151-aa2a3df0bf5a" d="M612.81,311.81h52V152.73a17.35,17.35,0,0,0-4.49-11.65l-21.55-23.76a17.32,17.32,0,0,0-12.85-5.69H599.69a17.32,17.32,0,0,0-12.85,5.69l-21.55,23.76a17.35,17.35,0,0,0-4.49,11.65V311.81Z"/><path class="aa741024-b7be-4340-a151-aa2a3df0bf5a" d="M612.81,311.46h-52V470.54a17.35,17.35,0,0,0,4.49,11.65L586.84,506a17.32,17.32,0,0,0,12.85,5.69h26.24A17.32,17.32,0,0,0,638.78,506l21.55-23.76a17.35,17.35,0,0,0,4.49-11.65V311.46Z"/><path class="aa741024-b7be-4340-a151-aa2a3df0bf5a" d="M613,311.46v-52H453.9a17.35,17.35,0,0,0-11.65,4.49L418.49,285.5a17.34,17.34,0,0,0-5.69,12.84v26.25a17.35,17.35,0,0,0,5.69,12.84L442.25,359a17.36,17.36,0,0,0,11.65,4.5H613Z"/><path class="aa741024-b7be-4340-a151-aa2a3df0bf5a" d="M612.64,311.46v52H771.72a17.36,17.36,0,0,0,11.65-4.5l23.76-21.55a17.35,17.35,0,0,0,5.69-12.84V298.34a17.34,17.34,0,0,0-5.69-12.84l-23.76-21.56a17.35,17.35,0,0,0-11.65-4.49H612.64Z"/><path class="aa741024-b7be-4340-a151-aa2a3df0bf5a" d="M612.76,311.93l36.78-36.78L537.05,162.66a17.29,17.29,0,0,0-11.41-5l-32-1.57a17.38,17.38,0,0,0-13.11,5.06l-9.28,9.28-9.28,9.28a17.38,17.38,0,0,0-5.06,13.11l1.57,32a17.29,17.29,0,0,0,5.05,11.41L576,348.71Z"/><path class="aa741024-b7be-4340-a151-aa2a3df0bf5a" d="M612.52,311.69l-36.78,36.78L688.22,461A17.34,17.34,0,0,0,699.64,466l32,1.56a17.32,17.32,0,0,0,13.1-5.06l9.28-9.28,9.28-9.28a17.32,17.32,0,0,0,5.06-13.1l-1.56-32a17.34,17.34,0,0,0-5.06-11.42L649.3,274.91Z"/><path class="aa741024-b7be-4340-a151-aa2a3df0bf5a" d="M612.64,311.56l-36.78-36.78L463.37,387.27a17.39,17.39,0,0,0-5.06,11.42l-1.56,32a17.33,17.33,0,0,0,5.06,13.1l9.28,9.28,9.28,9.28a17.33,17.33,0,0,0,13.1,5.06l32-1.56a17.34,17.34,0,0,0,11.42-5.06L649.42,348.34Z"/><path class="aa741024-b7be-4340-a151-aa2a3df0bf5a" d="M612.39,311.81l36.78,36.78L761.66,236.1a17.34,17.34,0,0,0,5.06-11.42l1.56-32a17.33,17.33,0,0,0-5.06-13.1l-9.28-9.28L744.66,161a17.33,17.33,0,0,0-13.1-5.06l-32,1.56a17.39,17.39,0,0,0-11.42,5.06L575.61,275Z"/><circle class="aa741024-b7be-4340-a151-aa2a3df0bf5a" cx="614.12" cy="311.81" r="156.32"/><circle class="3565899b-2f7a-4943-a5af-4aaf3529208a" cx="614.12" cy="311.81" r="76.1"/></g><g id="c586b5c7-4941-409a-a9dc-5335eb27549d" data-name="Layer 10"><path class="aa741024-b7be-4340-a151-aa2a3df0bf5a" d="M271.81,580H692.89a500,500,0,0,1,211.44,46.91L953.81,650l-49.48,23.09A500,500,0,0,1,692.89,720H271.81Z"/><polygon class="61c9a396-5452-4803-87fb-d9ddf3811ec6" points="152.19 490 242.19 580 428.74 580 340.62 491.88 152.19 490"/><polygon class="61c9a396-5452-4803-87fb-d9ddf3811ec6" points="152.19 810 242.19 720 428.74 720 340.62 808.12 152.19 810"/></g></g></g></g></svg>